<svg width="94" height="31" fill="none" xmlns="http://www.w3.org/2000/svg"><path d="M14.815 30.838c-1.897 0-3.795-.325-5.62-1.136-1.678-.73-3.21-1.867-4.524-3.247-1.24-1.38-2.263-3.083-2.992-4.869C.949 19.64.584 17.61.657 15.581c0-2.029.365-4.139 1.022-6.005.73-1.867 1.678-3.49 2.992-4.87C7.37 1.867 11.02.326 14.742.326c1.898 0 3.868.324 5.693 1.136 1.605.73 3.138 1.704 4.379 3.084l-4.452 4.95c-.657-.812-1.46-1.38-2.336-1.786-1.021-.486-2.116-.73-3.284-.649-1.022 0-2.043.163-2.919.568-.876.406-1.606.974-2.262 1.786a9.564 9.564 0 00-1.533 2.678c-.365 1.136-.51 2.353-.51 3.57 0 1.218.145 2.435.51 3.571.365.974.876 1.948 1.533 2.76.656.73 1.46 1.379 2.262 1.785.949.405 1.97.568 2.92.568 1.094 0 2.262-.163 3.283-.65a6.885 6.885 0 002.409-1.866l4.525 4.95c-1.314 1.298-2.774 2.354-4.38 3.084-1.897.65-3.794.974-5.765.974zm20.143 0c-1.825 0-3.649-.406-5.255-1.38-1.46-.893-2.773-2.191-3.649-3.814-.875-1.704-1.386-3.57-1.313-5.518 0-1.867.438-3.815 1.313-5.438.876-1.623 2.117-2.921 3.65-3.814a10.133 10.133 0 015.254-1.46c1.825 0 3.65.487 5.255 1.46 1.532.893 2.773 2.191 3.649 3.814.876 1.623 1.386 3.49 1.313 5.356 0 1.948-.437 3.815-1.313 5.519-.876 1.623-2.117 2.921-3.65 3.814-1.678.974-3.43 1.46-5.254 1.46zm0-6.492a3.91 3.91 0 001.898-.487c.51-.325 1.021-.893 1.313-1.461.292-.65.438-1.46.438-2.191 0-.73-.146-1.542-.51-2.191a3.313 3.313 0 00-1.241-1.461c-.584-.325-1.241-.568-1.898-.487-.657 0-1.314.162-1.897.568-.511.325-.95.893-1.241 1.542-.292.65-.438 1.38-.438 2.191 0 .73.146 1.46.438 2.191.292.65.73 1.136 1.24 1.46.511.163 1.168.326 1.898.326zm19.56 6.41c-3.285.082-6.35-1.866-7.883-5.112a11.68 11.68 0 01-1.095-5.437c0-1.867.365-3.814 1.095-5.519.73-1.541 1.825-2.84 3.138-3.732 1.46-.974 3.066-1.38 4.744-1.38 1.095 0 2.19.243 3.211.73a5.993 5.993 0 012.482 1.948c.657.811 1.094 1.785 1.167 2.84v9.9a6.73 6.73 0 01-1.167 2.922 9.777 9.777 0 01-2.555 2.191c-1.022.406-2.116.65-3.138.65zm1.094-6.41c.657 0 1.313-.163 1.897-.487.511-.325.95-.893 1.241-1.461.365-.65.51-1.46.51-2.191 0-.73-.145-1.46-.437-2.11-.292-.568-.73-1.136-1.24-1.46-.585-.407-1.241-.569-1.898-.569-.657 0-1.314.162-1.898.568-.51.406-.948.893-1.313 1.46a5.176 5.176 0 00-.438 2.11c0 .731.146 1.462.438 2.192.292.568.73 1.136 1.313 1.46.511.244 1.168.488 1.825.488zm9.78 6.005h-6.423v-5.437l.876-5.032-1.022-4.95V0h6.495l.073 30.35z" fill="#2F2F2F"/><path d="M84.95 30.189l-7.225-13.147h-.657L66.997.649h7.955l7.08 12.416h.656l10.144 17.123H84.95zm-18.391 0l9.633-15.744 5.255 2.76-7.298 12.984h-7.59zm16.275-13.796l-5.255-2.84L84.66.648h7.662l-9.487 15.744z" fill="url(#paint0_linear_1_453)"/><defs><linearGradient id="paint0_linear_1_453" x1="70.64" y1="2.636" x2="90.366" y2="25.809" gradientUnits="userSpaceOnUse"><stop stop-color="#EAD71B"/><stop offset=".57" stop-color="#FF7F96"/><stop offset="1" stop-color="#82CBAC"/></linearGradient></defs></svg>