<svg width="18" height="18" fill="none" xmlns="http://www.w3.org/2000/svg"><path d="M17.171 4.937a6.395 6.395 0 01-1.843.505 3.216 3.216 0 001.41-1.775 6.423 6.423 0 01-2.037.779 3.21 3.21 0 00-5.468 2.927A9.11 9.11 0 012.62 4.02a3.208 3.208 0 00.993 4.284 3.197 3.197 0 01-1.453-.402v.041a3.211 3.211 0 002.574 3.147 3.22 3.22 0 01-1.45.055 3.213 3.213 0 002.998 2.228 6.437 6.437 0 01-4.751 1.329 9.082 9.082 0 004.919 1.442c5.903 0 9.13-4.89 9.13-9.13a9.23 9.23 0 00-.009-.416 6.514 6.514 0 001.601-1.661z" fill="#000"/></svg>